<svg width="353" height="313" viewBox="0 0 353 313" fill="none" xmlns="http://www.w3.org/2000/svg">
<rect width="9.54055" height="9.54055" rx="1.34409" fill="#FA1622"/>
<rect x="38.1625" width="9.54055" height="9.54055" rx="1.34409" fill="#FA1622"/>
<rect x="76.3246" width="9.54055" height="9.54055" rx="1.34409" fill="#FA1622"/>
<rect x="114.487" width="9.54055" height="9.54055" rx="1.34409" fill="#FA1622"/>
<rect x="152.649" width="9.54055" height="9.54055" rx="1.34409" fill="#FA1622"/>
<rect x="190.811" width="9.54055" height="9.54055" rx="1.34409" fill="#FA1622"/>
<rect x="228.974" width="9.54055" height="9.54055" rx="1.34409" fill="#FA1622"/>
<rect x="267.136" width="9.54055" height="9.54055" rx="1.34409" fill="#FA1622"/>
<rect x="305.298" width="9.54055" height="9.54055" rx="1.34409" fill="#FA1622"/>
<rect x="343.459" width="9.54055" height="9.54055" rx="1.34409" fill="#FA1622"/>
<rect y="38.1622" width="9.54055" height="9.54055" rx="1.34409" fill="#FA1622"/>
<rect x="38.1625" y="38.1622" width="9.54055" height="9.54055" rx="1.34409" fill="#FA1622"/>
<rect x="76.3246" y="38.1622" width="9.54055" height="9.54055" rx="1.34409" fill="#FA1622"/>
<rect x="114.487" y="38.1622" width="9.54055" height="9.54055" rx="1.34409" fill="#FA1622"/>
<rect x="152.649" y="38.1622" width="9.54055" height="9.54055" rx="1.34409" fill="#FA1622"/>
<rect x="190.811" y="38.1622" width="9.54055" height="9.54055" rx="1.34409" fill="#FA1622"/>
<rect x="228.974" y="38.1622" width="9.54055" height="9.54055" rx="1.34409" fill="#FA1622"/>
<rect x="267.136" y="38.1622" width="9.54055" height="9.54055" rx="1.34409" fill="#FA1622"/>
<rect x="305.298" y="38.1622" width="9.54055" height="9.54055" rx="1.34409" fill="#FA1622"/>
<rect x="343.459" y="38.1622" width="9.54055" height="9.54055" rx="1.34409" fill="#FA1622"/>
<rect y="76.3244" width="9.54055" height="9.54055" rx="1.34409" fill="#FA1622"/>
<rect x="38.1625" y="76.3244" width="9.54055" height="9.54055" rx="1.34409" fill="#FA1622"/>
<rect x="76.3246" y="76.3244" width="9.54055" height="9.54055" rx="1.34409" fill="#FA1622"/>
<rect x="114.487" y="76.3244" width="9.54055" height="9.54055" rx="1.34409" fill="#FA1622"/>
<rect x="152.649" y="76.3244" width="9.54055" height="9.54055" rx="1.34409" fill="#FA1622"/>
<rect x="190.811" y="76.3244" width="9.54055" height="9.54055" rx="1.34409" fill="#FA1622"/>
<rect x="228.974" y="76.3244" width="9.54055" height="9.54055" rx="1.34409" fill="#FA1622"/>
<rect x="267.136" y="76.3244" width="9.54055" height="9.54055" rx="1.34409" fill="#FA1622"/>
<rect x="305.298" y="76.3244" width="9.54055" height="9.54055" rx="1.34409" fill="#FA1622"/>
<rect x="343.459" y="76.3244" width="9.54055" height="9.54055" rx="1.34409" fill="#FA1622"/>
<rect y="114.487" width="9.54055" height="9.54055" rx="1.34409" fill="#FA1622"/>
<rect x="38.1625" y="114.487" width="9.54055" height="9.54055" rx="1.34409" fill="#FA1622"/>
<rect x="76.3246" y="114.487" width="9.54055" height="9.54055" rx="1.34409" fill="#FA1622"/>
<rect x="114.487" y="114.487" width="9.54055" height="9.54055" rx="1.34409" fill="#FA1622"/>
<rect x="152.649" y="114.487" width="9.54055" height="9.54055" rx="1.34409" fill="#FA1622"/>
<rect x="190.811" y="114.487" width="9.54055" height="9.54055" rx="1.34409" fill="#FA1622"/>
<rect x="228.974" y="114.487" width="9.54055" height="9.54055" rx="1.34409" fill="#FA1622"/>
<rect x="267.136" y="114.487" width="9.54055" height="9.54055" rx="1.34409" fill="#FA1622"/>
<rect x="305.298" y="114.487" width="9.54055" height="9.54055" rx="1.34409" fill="#FA1622"/>
<rect x="343.459" y="114.487" width="9.54055" height="9.54055" rx="1.34409" fill="#FA1622"/>
<rect y="152.649" width="9.54055" height="9.54055" rx="1.34409" fill="#FA1622"/>
<rect x="38.1625" y="152.649" width="9.54055" height="9.54055" rx="1.34409" fill="#FA1622"/>
<rect x="76.3246" y="152.649" width="9.54055" height="9.54055" rx="1.34409" fill="#FA1622"/>
<rect x="114.487" y="152.649" width="9.54055" height="9.54055" rx="1.34409" fill="#FA1622"/>
<rect x="152.649" y="152.649" width="9.54055" height="9.54055" rx="1.34409" fill="#FA1622"/>
<rect x="190.811" y="152.649" width="9.54055" height="9.54055" rx="1.34409" fill="#FA1622"/>
<rect x="228.974" y="152.649" width="9.54055" height="9.54055" rx="1.34409" fill="#FA1622"/>
<rect x="267.136" y="152.649" width="9.54055" height="9.54055" rx="1.34409" fill="#FA1622"/>
<rect x="305.298" y="152.649" width="9.54055" height="9.54055" rx="1.34409" fill="#FA1622"/>
<rect x="343.459" y="152.649" width="9.54055" height="9.54055" rx="1.34409" fill="#FA1622"/>
<rect y="190.811" width="9.54055" height="9.54055" rx="1.34409" fill="#FA1622"/>
<rect x="38.1625" y="190.811" width="9.54055" height="9.54055" rx="1.34409" fill="#FA1622"/>
<rect x="76.3246" y="190.811" width="9.54055" height="9.54055" rx="1.34409" fill="#FA1622"/>
<rect x="114.487" y="190.811" width="9.54055" height="9.54055" rx="1.34409" fill="#FA1622"/>
<rect x="152.649" y="190.811" width="9.54055" height="9.54055" rx="1.34409" fill="#FA1622"/>
<rect x="190.811" y="190.811" width="9.54055" height="9.54055" rx="1.34409" fill="#FA1622"/>
<rect x="228.974" y="190.811" width="9.54055" height="9.54055" rx="1.34409" fill="#FA1622"/>
<rect x="267.136" y="190.811" width="9.54055" height="9.54055" rx="1.34409" fill="#FA1622"/>
<rect x="305.298" y="190.811" width="9.54055" height="9.54055" rx="1.34409" fill="#FA1622"/>
<rect x="343.459" y="190.811" width="9.54055" height="9.54055" rx="1.34409" fill="#FA1622"/>
<rect y="228.973" width="9.54055" height="9.54055" rx="1.34409" fill="#FA1622"/>
<rect y="265.779" width="9.54055" height="9.54055" rx="1.34409" fill="#FA1622"/>
<rect y="302.585" width="9.54055" height="9.54055" rx="1.34409" fill="#FA1622"/>
<rect x="38.1625" y="228.973" width="9.54055" height="9.54055" rx="1.34409" fill="#FA1622"/>
<rect x="38.1625" y="265.779" width="9.54055" height="9.54055" rx="1.34409" fill="#FA1622"/>
<rect x="38.1625" y="302.585" width="9.54055" height="9.54055" rx="1.34409" fill="#FA1622"/>
<rect x="76.3246" y="228.973" width="9.54055" height="9.54055" rx="1.34409" fill="#FA1622"/>
<rect x="76.3246" y="265.779" width="9.54055" height="9.54055" rx="1.34409" fill="#FA1622"/>
<rect x="76.3246" y="302.585" width="9.54055" height="9.54055" rx="1.34409" fill="#FA1622"/>
<rect x="114.487" y="228.973" width="9.54055" height="9.54055" rx="1.34409" fill="#FA1622"/>
<rect x="114.487" y="265.779" width="9.54055" height="9.54055" rx="1.34409" fill="#FA1622"/>
<rect x="114.487" y="302.585" width="9.54055" height="9.54055" rx="1.34409" fill="#FA1622"/>
<rect x="152.649" y="228.973" width="9.54055" height="9.54055" rx="1.34409" fill="#FA1622"/>
<rect x="152.649" y="265.779" width="9.54055" height="9.54055" rx="1.34409" fill="#FA1622"/>
<rect x="152.649" y="302.585" width="9.54055" height="9.54055" rx="1.34409" fill="#FA1622"/>
<rect x="190.811" y="228.973" width="9.54055" height="9.54055" rx="1.34409" fill="#FA1622"/>
<rect x="190.811" y="265.779" width="9.54055" height="9.54055" rx="1.34409" fill="#FA1622"/>
<rect x="190.811" y="302.585" width="9.54055" height="9.54055" rx="1.34409" fill="#FA1622"/>
<rect x="228.974" y="228.973" width="9.54055" height="9.54055" rx="1.34409" fill="#FA1622"/>
<rect x="228.974" y="265.779" width="9.54055" height="9.54055" rx="1.34409" fill="#FA1622"/>
<rect x="228.974" y="302.585" width="9.54055" height="9.54055" rx="1.34409" fill="#FA1622"/>
<rect x="267.136" y="228.973" width="9.54055" height="9.54055" rx="1.34409" fill="#FA1622"/>
<rect x="267.136" y="265.779" width="9.54055" height="9.54055" rx="1.34409" fill="#FA1622"/>
<rect x="267.136" y="302.585" width="9.54055" height="9.54055" rx="1.34409" fill="#FA1622"/>
<rect x="305.298" y="228.973" width="9.54055" height="9.54055" rx="1.34409" fill="#FA1622"/>
<rect x="305.298" y="265.779" width="9.54055" height="9.54055" rx="1.34409" fill="#FA1622"/>
<rect x="305.298" y="302.585" width="9.54055" height="9.54055" rx="1.34409" fill="#FA1622"/>
<rect x="343.459" y="228.973" width="9.54055" height="9.54055" rx="1.34409" fill="#FA1622"/>
<rect x="343.459" y="265.779" width="9.54055" height="9.54055" rx="1.34409" fill="#FA1622"/>
<rect x="343.459" y="302.585" width="9.54055" height="9.54055" rx="1.34409" fill="#FA1622"/>
</svg>
